<svg width="244" height="50" viewBox="0 0 244 50" fill="none" xmlns="http://www.w3.org/2000/svg">
<path d="M21.8438 49H14.3125V9.6875H0.9375V3.3125H35.1875V9.6875H21.8438V49ZM55 13.75C59.375 13.75 62.6771 14.7188 64.9062 16.6562C67.1562 18.5938 68.2812 21.6146 68.2812 25.7188V49H63.0625L61.6562 44.0938H61.4062C60.4271 45.3438 59.4167 46.375 58.375 47.1875C57.3333 48 56.125 48.6042 54.75 49C53.3958 49.4167 51.7396 49.625 49.7812 49.625C47.7188 49.625 45.875 49.25 44.25 48.5C42.625 47.7292 41.3438 46.5625 40.4062 45C39.4688 43.4375 39 41.4583 39 39.0625C39 35.5 40.3229 32.8229 42.9688 31.0312C45.6354 29.2396 49.6562 28.25 55.0312 28.0625L61.0312 27.8438V26.0312C61.0312 23.6354 60.4688 21.9271 59.3438 20.9062C58.2396 19.8854 56.6771 19.375 54.6562 19.375C52.9271 19.375 51.25 19.625 49.625 20.125C48 20.625 46.4167 21.2396 44.875 21.9688L42.5 16.7812C44.1875 15.8854 46.1042 15.1562 48.25 14.5938C50.4167 14.0312 52.6667 13.75 55 13.75ZM61 32.4688L56.5312 32.625C52.8646 32.75 50.2917 33.375 48.8125 34.5C47.3333 35.625 46.5938 37.1667 46.5938 39.125C46.5938 40.8333 47.1042 42.0833 48.125 42.875C49.1458 43.6458 50.4896 44.0312 52.1562 44.0312C54.6979 44.0312 56.8021 43.3125 58.4688 41.875C60.1562 40.4167 61 38.2812 61 35.4688V32.4688ZM101.812 39.125C101.812 41.3958 101.26 43.3125 100.156 44.875C99.0521 46.4375 97.4375 47.625 95.3125 48.4375C93.2083 49.2292 90.625 49.625 87.5625 49.625C85.1458 49.625 83.0625 49.4479 81.3125 49.0938C79.5833 48.7604 77.9479 48.2396 76.4062 47.5312V41.1875C78.0521 41.9583 79.8958 42.625 81.9375 43.1875C84 43.75 85.9479 44.0312 87.7812 44.0312C90.1979 44.0312 91.9375 43.6562 93 42.9062C94.0625 42.1354 94.5938 41.1146 94.5938 39.8438C94.5938 39.0938 94.375 38.4271 93.9375 37.8438C93.5208 37.2396 92.7292 36.625 91.5625 36C90.4167 35.3542 88.7292 34.5833 86.5 33.6875C84.3125 32.8125 82.4688 31.9375 80.9688 31.0625C79.4688 30.1875 78.3333 29.1354 77.5625 27.9062C76.7917 26.6562 76.4062 25.0625 76.4062 23.125C76.4062 20.0625 77.6146 17.7396 80.0312 16.1562C82.4688 14.5521 85.6875 13.75 89.6875 13.75C91.8125 13.75 93.8125 13.9688 95.6875 14.4062C97.5833 14.8229 99.4375 15.4375 101.25 16.25L98.9375 21.7812C97.375 21.0938 95.8021 20.5312 94.2188 20.0938C92.6562 19.6354 91.0625 19.4062 89.4375 19.4062C87.5417 19.4062 86.0938 19.6979 85.0938 20.2812C84.1146 20.8646 83.625 21.6979 83.625 22.7812C83.625 23.5938 83.8646 24.2812 84.3438 24.8438C84.8229 25.4062 85.6458 25.9688 86.8125 26.5312C88 27.0938 89.6458 27.7917 91.75 28.625C93.8125 29.4167 95.5938 30.25 97.0938 31.125C98.6146 31.9792 99.7812 33.0312 100.594 34.2812C101.406 35.5312 101.812 37.1458 101.812 39.125ZM117.094 0.375V23.875C117.094 24.9375 117.052 26.1042 116.969 27.375C116.885 28.625 116.802 29.8021 116.719 30.9062H116.875C117.417 30.1771 118.062 29.3229 118.812 28.3438C119.583 27.3646 120.312 26.5104 121 25.7812L131.562 14.4062H140L126.156 29.2812L140.906 49H132.281L121.219 33.8125L117.094 37.3438V49H109.75V0.375H117.094ZM169.688 39.125C169.688 41.3958 169.135 43.3125 168.031 44.875C166.927 46.4375 165.312 47.625 163.188 48.4375C161.083 49.2292 158.5 49.625 155.438 49.625C153.021 49.625 150.938 49.4479 149.188 49.0938C147.458 48.7604 145.823 48.2396 144.281 47.5312V41.1875C145.927 41.9583 147.771 42.625 149.812 43.1875C151.875 43.75 153.823 44.0312 155.656 44.0312C158.073 44.0312 159.812 43.6562 160.875 42.9062C161.938 42.1354 162.469 41.1146 162.469 39.8438C162.469 39.0938 162.25 38.4271 161.812 37.8438C161.396 37.2396 160.604 36.625 159.438 36C158.292 35.3542 156.604 34.5833 154.375 33.6875C152.188 32.8125 150.344 31.9375 148.844 31.0625C147.344 30.1875 146.208 29.1354 145.438 27.9062C144.667 26.6562 144.281 25.0625 144.281 23.125C144.281 20.0625 145.49 17.7396 147.906 16.1562C150.344 14.5521 153.562 13.75 157.562 13.75C159.688 13.75 161.688 13.9688 163.562 14.4062C165.458 14.8229 167.312 15.4375 169.125 16.25L166.812 21.7812C165.25 21.0938 163.677 20.5312 162.094 20.0938C160.531 19.6354 158.938 19.4062 157.312 19.4062C155.417 19.4062 153.969 19.6979 152.969 20.2812C151.99 20.8646 151.5 21.6979 151.5 22.7812C151.5 23.5938 151.74 24.2812 152.219 24.8438C152.698 25.4062 153.521 25.9688 154.688 26.5312C155.875 27.0938 157.521 27.7917 159.625 28.625C161.688 29.4167 163.469 30.25 164.969 31.125C166.49 31.9792 167.656 33.0312 168.469 34.2812C169.281 35.5312 169.688 37.1458 169.688 39.125ZM202.531 14.4062V49H195.188V14.4062H202.531ZM198.906 1.15625C200.031 1.15625 201 1.45833 201.812 2.0625C202.646 2.66667 203.062 3.70833 203.062 5.1875C203.062 6.64583 202.646 7.6875 201.812 8.3125C201 8.91667 200.031 9.21875 198.906 9.21875C197.74 9.21875 196.75 8.91667 195.938 8.3125C195.146 7.6875 194.75 6.64583 194.75 5.1875C194.75 3.70833 195.146 2.66667 195.938 2.0625C196.75 1.45833 197.74 1.15625 198.906 1.15625ZM243.688 31.625C243.688 34.5 243.312 37.0521 242.562 39.2812C241.812 41.5104 240.719 43.3958 239.281 44.9375C237.844 46.4583 236.115 47.625 234.094 48.4375C232.073 49.2292 229.792 49.625 227.25 49.625C224.875 49.625 222.698 49.2292 220.719 48.4375C218.74 47.625 217.021 46.4583 215.562 44.9375C214.125 43.3958 213.01 41.5104 212.219 39.2812C211.427 37.0521 211.031 34.5 211.031 31.625C211.031 27.8125 211.688 24.5833 213 21.9375C214.333 19.2708 216.229 17.2396 218.688 15.8438C221.146 14.4479 224.073 13.75 227.469 13.75C230.656 13.75 233.469 14.4479 235.906 15.8438C238.344 17.2396 240.25 19.2708 241.625 21.9375C243 24.6042 243.688 27.8333 243.688 31.625ZM218.594 31.625C218.594 34.1458 218.896 36.3021 219.5 38.0938C220.125 39.8854 221.083 41.2604 222.375 42.2188C223.667 43.1562 225.333 43.625 227.375 43.625C229.417 43.625 231.083 43.1562 232.375 42.2188C233.667 41.2604 234.615 39.8854 235.219 38.0938C235.823 36.3021 236.125 34.1458 236.125 31.625C236.125 29.1042 235.823 26.9688 235.219 25.2188C234.615 23.4479 233.667 22.1042 232.375 21.1875C231.083 20.25 229.406 19.7812 227.344 19.7812C224.302 19.7812 222.083 20.8021 220.688 22.8438C219.292 24.8854 218.594 27.8125 218.594 31.625Z" fill="black"/>
<path d="M176.562 45.125C176.562 43.4167 177 42.2188 177.875 41.5312C178.771 40.8229 179.854 40.4688 181.125 40.4688C182.396 40.4688 183.479 40.8229 184.375 41.5312C185.292 42.2188 185.75 43.4167 185.75 45.125C185.75 46.7917 185.292 48 184.375 48.75C183.479 49.4792 182.396 49.8438 181.125 49.8438C179.854 49.8438 178.771 49.4792 177.875 48.75C177 48 176.562 46.7917 176.562 45.125Z" fill="#FFBB55"/>
</svg>
