<svg width="40" height="40" viewBox="0 0 40 40" fill="none" xmlns="http://www.w3.org/2000/svg">
<path d="M23.5333 17.45L19.9999 20.9833L16.4499 17.45L14.0999 19.8L17.6499 23.3333L14.1166 26.8667L16.4666 29.2167L19.9999 25.6833L23.5333 29.2167L25.8833 26.8667L22.3499 23.3333L25.8833 19.8L23.5333 17.45ZM25.8333 6.66667L24.1666 5H15.8333L14.1666 6.66667H8.33325V10H31.6666V6.66667H25.8333ZM9.99992 31.6667C9.99992 33.5 11.4999 35 13.3333 35H26.6666C28.4999 35 29.9999 33.5 29.9999 31.6667V11.6667H9.99992V31.6667ZM13.3333 15H26.6666V31.6667H13.3333V15Z" fill="#C82323"/>
</svg>
